<svg width="30" height="30" viewBox="0 0 30 30" fill="none" xmlns="http://www.w3.org/2000/svg">
<path d="M17 12.5741C14.5629 12.5741 12.5741 14.563 12.5741 17.0001C12.5741 19.4372 14.5629 21.426 17 21.426C19.4371 21.426 21.426 19.4372 21.426 17.0001C21.426 14.563 19.4371 12.5741 17 12.5741ZM30.2746 17.0001C30.2746 15.1672 30.2912 13.351 30.1883 11.5215C30.0854 9.39654 29.6006 7.51061 28.0467 5.9567C26.4895 4.39947 24.6069 3.91803 22.4819 3.8151C20.6491 3.71217 18.8328 3.72877 17.0034 3.72877C15.1705 3.72877 13.3543 3.71217 11.5248 3.8151C9.39984 3.91803 7.5139 4.40279 5.96 5.9567C4.40277 7.51393 3.92132 9.39654 3.81839 11.5215C3.71547 13.3544 3.73207 15.1706 3.73207 17.0001C3.73207 18.8296 3.71547 20.6491 3.81839 22.4786C3.92132 24.6036 4.40609 26.4895 5.96 28.0434C7.51722 29.6006 9.39984 30.0821 11.5248 30.185C13.3577 30.2879 15.1739 30.2713 17.0034 30.2713C18.8362 30.2713 20.6524 30.2879 22.4819 30.185C24.6069 30.0821 26.4928 29.5973 28.0467 28.0434C29.6039 26.4862 30.0854 24.6036 30.1883 22.4786C30.2946 20.6491 30.2746 18.8329 30.2746 17.0001ZM17 23.81C13.2315 23.81 10.1901 20.7686 10.1901 17.0001C10.1901 13.2315 13.2315 10.1901 17 10.1901C20.7686 10.1901 23.81 13.2315 23.81 17.0001C23.81 20.7686 20.7686 23.81 17 23.81ZM24.0889 11.5016C23.209 11.5016 22.4985 10.7911 22.4985 9.91119C22.4985 9.03131 23.209 8.32076 24.0889 8.32076C24.9688 8.32076 25.6793 9.03131 25.6793 9.91119C25.6796 10.1201 25.6386 10.3271 25.5588 10.5201C25.479 10.7132 25.3618 10.8886 25.2141 11.0364C25.0664 11.1841 24.8909 11.3013 24.6978 11.3811C24.5048 11.4609 24.2978 11.5019 24.0889 11.5016Z" fill="black"/>
</svg>
